<svg width="524" height="402" viewBox="0 0 524 402" fill="none" xmlns="http://www.w3.org/2000/svg">
<path fill-rule="evenodd" clip-rule="evenodd" d="M117.182 51.9072C116.997 53.6254 115.01 52.3132 114.825 53.2446C114.707 53.8298 116.752 55.2821 117.193 55.6821C115.769 56.6041 113.95 54.4798 112.882 53.5897C112.332 54.2309 112.146 54.5677 112.651 55.3013C113.543 56.5964 113.502 54.8804 114.563 55.7815C114.121 56.5783 113.733 56.1217 113.172 55.9074C113.416 57.4404 112.869 56.47 112.441 57.441C112.093 58.2306 112.135 58.8141 112.032 59.696C112.535 60.9379 113.038 62.1802 113.542 63.4221C114.147 64.9161 113.967 65.3963 115.448 64.8969C115.281 64.587 114.173 63.0715 114.263 62.6989C114.365 62.2731 115.881 61.6841 116.281 61.3263C116.985 60.6972 116.977 60.1576 117.427 59.4817C117.248 58.8531 117.387 58.5592 117.844 58.6015L118.348 60.0581C118.306 61.0917 117.493 60.995 117.014 61.9824C116.279 63.4935 116.69 62.6017 117.29 63.8177C117.88 65.0122 117.946 66.537 118.915 67.1376C118.394 67.3832 117.874 67.6289 117.353 67.8739C118.569 69.307 116.04 68.6091 115.622 68.4701C116.05 69.4454 116.477 70.4208 116.905 71.3961C118.187 70.6257 118.819 69.1652 119.673 67.9591L121.622 71.8505C120.975 71.7862 120.329 71.7225 119.683 71.6582C119.773 71.8412 120.601 73.0962 120.53 73.3753C120.241 74.5133 118.041 73.8715 118.284 75.36C118.315 75.5507 120.288 77.6865 120.626 77.8926C119.635 78.3706 119.186 78.1723 119.542 79.4278L120.922 78.5316C121.314 79.2872 121.768 80.0251 122.018 80.8526C121.97 81.3939 122.06 81.9065 122.288 82.3912C122.559 82.8247 122.865 83.2291 123.204 83.6039C123.474 84.3649 123.56 88.519 123.236 89.1965C122.512 88.1926 120.895 89.9646 123.625 89.9646C124.82 89.9646 124.74 89.6976 125.197 90.8251C125.556 91.7125 125.75 92.4867 124.731 92.5719C125.497 94.1923 125.334 95.4408 125.403 97.1678C125.459 98.5667 125.824 99.9575 126.095 101.33C125.853 100.956 125.61 100.582 125.367 100.208C124.714 101.705 125.212 102.965 125.523 104.567C126.201 103.605 126.284 105.321 126.864 105.144C128.048 104.781 127.162 104.514 127.643 103.681C128.06 102.959 128.016 102.752 128.787 102.31C129.809 101.725 131.601 101.703 132.758 101.497C134.702 101.148 136.649 101.061 138.616 100.969C145.98 100.626 153.318 100.538 160.681 100.973C167.454 101.373 174.392 102.393 181.034 103.774C188.106 105.245 195.022 106.601 201.871 109.088C203.194 109.569 204.519 110.572 205.842 110.924C207.097 111.259 208.355 111.254 209.663 111.742C212.797 112.91 216.038 113.796 219.196 114.911C222.598 116.113 226.28 117.115 229.519 118.778C230.925 119.501 232.202 120.481 233.608 121.212C234.932 121.902 237.159 122.531 237.859 124.124C238.131 124.744 238.085 125.194 237.915 125.838C237.576 127.129 237.307 126.99 236.384 126.902C235.1 126.78 233.438 125.707 232.191 125.285C228.777 124.13 225.321 123.205 221.849 122.28C215.614 120.618 209.354 117.675 203.201 116.524C199.552 115.841 196.095 113.985 192.426 113.284C191.621 113.131 189.291 111.897 188.63 112.323C188.455 112.436 188.026 113.79 187.875 114.114C187.334 115.276 186.712 116.399 185.985 117.44C183.791 120.58 180.85 123.109 178.224 125.814C175.225 128.905 172.619 132.315 169.851 135.632C169.61 135.333 169.37 135.033 169.13 134.735C169.383 136.83 167.922 138.341 166.727 139.763C165.309 141.454 164.169 143.042 163.05 144.969C162.133 146.549 160.959 147.933 159.922 149.373C158.903 150.789 158.224 152.499 157.286 154.025C155.133 157.531 153.014 161.105 150.842 164.564C149.82 166.192 149.012 168.024 148.203 169.878C147.561 171.349 145.629 174.356 145.629 175.783C145.768 176.482 144.356 180.687 145.865 178.706C146.105 179.106 146.346 179.506 146.588 179.906C146.175 179.72 145.763 179.534 145.35 179.348C146.603 180.567 144.263 180.723 144.211 181.404C144.42 181.62 144.629 181.836 144.837 182.052C145.193 182.84 145.657 182.942 146.226 182.358C146.854 182.4 146.979 182.023 147.679 182.274C147.011 183.394 146.15 182.686 145.811 184.234C145.513 185.599 146.457 185.891 147.455 186.698L147.517 186.749L147.539 186.829C147.756 187.527 148.373 187.23 149.06 187.078C150.702 186.715 152.517 186.019 154.117 185.483C157.575 184.325 161.059 183.349 164.634 182.557C172.791 180.75 180.882 180.835 189.113 180.264C188.896 179.296 188.895 179.381 189.152 178.781C188.822 179.55 190.81 178.546 189.312 180.245C193.136 180.917 197.268 180.412 201.146 180.635C200.966 180.203 200.551 179.707 200.939 179.394C202.775 182.245 208.912 181.023 211.945 181.431C213.726 181.671 215.486 182.131 217.261 182.434L218.008 182.56C218.631 182.666 219.255 182.783 219.864 182.96C220.648 183.187 221.955 184.119 222.698 183.902C221.61 181.546 222.865 183.586 223.036 183.613C223.553 183.695 224.443 183.882 225.185 183.882C224.339 180.233 222.887 176.87 222.302 173.112C221.938 170.769 220.936 166.995 223.093 165.334C224.275 164.425 226.212 164.227 227.581 163.918C229.082 163.579 231.703 163.593 233.009 162.682C234.028 161.971 234.243 161.317 235.578 160.773C237.119 160.145 237.829 159.522 239.385 160.029C238.752 159.178 237.865 158.557 239.108 157.687C239.617 157.332 240.615 157.81 240.793 157.032C241.715 157.732 241.497 158.297 241.744 159.256C241.721 159.661 241.622 160.048 241.445 160.415C241.933 160.626 242.421 160.837 242.909 161.048C242.599 160.153 243.509 160.686 243.691 160.246C243.961 159.589 243.801 158.585 243.801 157.871C244.807 158.212 245.859 158.634 246.299 159.758C247.531 158.97 247.041 158.916 246.41 157.733C247.444 157.47 247.663 158.042 247.82 158.962C248.366 158.78 248.912 158.6 249.458 158.419C248.228 158.409 247.932 157.377 247.903 156.257C248.382 156.424 248.86 156.591 249.339 156.758C249.437 157.301 249.536 157.843 249.634 158.385C250.388 159.071 252.348 157.832 252.984 157.478C255.202 156.243 256.014 155.886 255.701 153.081C255.44 150.729 254.861 148.365 254.733 146.002C254.59 143.376 254.875 140.567 255.09 137.95C255.505 132.884 256.174 127.892 256.408 122.805C256.535 120.051 256.676 117.297 256.777 114.541C256.857 112.351 257.561 109.941 255.016 109.746C255.327 108.686 254.395 107.46 253.434 106.879C253.098 106.056 252.73 105.983 252.331 106.659C251.984 106.776 251.661 106.721 251.363 106.493C249.962 106.152 248.281 104.017 247.023 103.247C245.79 102.493 243.101 101.396 242.22 100.126C241.369 98.8964 242.657 99.0349 242.397 97.9085C242.041 96.3688 240.747 98.5799 240.549 98.8876C240.116 98.4211 238.464 97.5464 238.484 96.8683C238.889 96.7908 239.293 96.7133 239.698 96.6359C239.256 96.3617 238.275 95.5429 237.76 95.4347C236.886 95.2506 237.214 95.0127 236.514 96.0474C236.27 95.6419 235.678 94.3094 235.307 94.0396C235.13 93.9104 234.078 93.8247 233.857 93.7412C232.712 93.3066 232.827 92.3499 231.986 91.895C231.577 91.6746 231.075 92.0131 230.732 91.8526C230.184 91.5955 230.183 90.718 229.686 90.3998C229.256 90.124 228.166 90.3531 227.653 90.1526C226.802 89.819 226.84 89.5086 226.205 88.8998C225.315 88.0464 224.496 88.17 223.505 87.5233C222.477 86.8529 222.635 85.3435 221.703 85.0556C220.458 84.6715 220.139 85.9375 219.462 84.6869C219.309 84.4061 220 83.9863 219.567 83.5357C219.032 82.9808 218.811 83.6429 218.566 84.0742L217.721 82.3615C216.366 83.1582 216.935 82.1307 215.901 81.5834C215.442 81.3406 215.064 81.8203 214.561 81.5268C214.191 81.3114 214.127 80.8422 213.861 80.5515C213.35 79.9927 213.068 79.2256 212.277 78.9597C212.563 79.0553 210.219 78.9828 210.428 78.8751C210.656 78.5157 210.884 78.1563 211.113 77.797C209.886 77.797 208.815 77.9277 207.628 77.5321C207.208 77.3926 206.552 77.1772 206.202 76.8903C205.242 76.1018 205.458 76.2941 205.458 74.8457C204.133 75.7513 202.447 75.4348 201.139 74.3847C200.457 73.8363 200.019 73.1802 199.27 72.6846C198.949 72.506 198.622 72.339 198.29 72.184C197.875 71.7225 197.459 71.7181 197.042 72.1714C196.452 72.0016 196.459 71.8846 196.002 71.5774C195.871 71.2994 195.732 71.0263 195.582 70.7587C195.092 70.7038 194.609 70.6087 194.132 70.4735C192.281 69.9389 191.164 68.6124 189.446 69.7878C189.226 69.307 189.006 68.8256 188.787 68.3443C188.056 69.5707 187.556 68.3992 186.586 67.9025C186.179 67.6943 185.651 67.6426 185.284 67.4525L184.662 67.6102C184.487 67.0277 184.312 66.4453 184.137 65.8628C183.783 66.0106 182.382 66.8189 181.96 66.7761C181.357 66.7151 180.635 65.6178 180.05 65.4106C179.158 65.0947 179.478 65.5123 178.601 65.5189C177.927 65.5238 177.609 65.6266 177.027 65.0188C178.995 64.4699 176.512 64.2111 175.683 64.0254C174.391 63.7363 173.725 64.0452 172.827 62.9489H173.759C172.84 62.0505 173.149 62.3676 172.181 62.4555C171.876 62.4824 170.55 63.2644 170.547 62.2214C169.296 63.0132 169.282 63.0149 167.992 62.6577C167.421 62.4995 166.935 61.9846 166.307 61.9725C165.694 61.961 165.255 62.2583 164.709 62.1945C164.382 62.1572 163.237 61.6961 162.85 61.545C162.237 61.3049 161.833 60.7922 161.246 60.5939C160.6 60.3746 159.778 60.6351 159.099 60.4752C157.082 59.9982 155.898 58.7015 153.713 59.4037C153.48 57.3041 151.043 57.7712 149.731 57.9877C148.819 58.1388 148.353 58.5355 147.408 58.0553C146.639 57.6646 146.2 57.0448 145.343 56.7327C144.686 56.4931 143.801 56.3189 143.115 56.1662C142.691 56.0222 142.257 55.9761 141.815 56.0283C141.37 56.0952 140.997 56.3031 140.696 56.6509L140.641 56.7195C140.573 56.5462 139.539 55.7239 139.658 55.8255C138.886 55.1623 138.524 55.4156 138.05 54.1243L139.704 53.7496C138.852 53.688 138.213 53.5825 137.455 53.938C136.932 54.1837 136.052 55.4854 135.528 55.4865C134.579 55.4876 134.248 54.0529 134.342 53.3061C133.546 55.2958 132.867 55.6271 131.08 54.6101C130.87 54.4903 130.66 54.371 130.45 54.2512C130.025 53.7726 129.602 53.7814 129.182 54.2782L128.433 54.7161C128.132 54.1793 127.832 53.643 127.532 53.1061C126.894 54.049 126.288 54.0952 125.248 53.8749C124.531 53.7226 123.06 52.3275 122.531 52.3281C122.224 52.3281 121.833 53.1303 121.322 53.2869C120.476 53.5474 119.161 52.8924 118.86 52.0231C118.7 52.3858 118.54 52.749 118.38 53.1122C117.98 52.7111 117.579 52.311 117.182 51.9072ZM147.544 186.742L147.545 186.773L147.517 186.749L147.516 186.748L147.544 186.742ZM148.582 184.849V186.539L148.049 186.643L147.544 186.742L147.539 186.65C147.516 185.837 147.904 185.235 148.582 184.849ZM195.67 178.127C195.837 178.674 196.003 179.222 196.168 179.769C195.609 179.818 195.049 179.867 194.489 179.917C194.883 179.32 195.277 178.724 195.67 178.127ZM261.389 134.831C260.166 135.215 260.183 135.168 259.937 136.384C258.539 143.302 262.863 151.236 259.689 157.812C268.969 157.731 278.269 157.93 287.495 159.098C287.495 155.331 287.38 151.572 287.645 147.811C287.765 146.103 287.945 144.402 288.107 142.699C288.312 140.538 288.247 140.665 286.6 140.293C285.735 140.097 285.425 139.508 284.598 139.149C283.977 138.879 283.699 139.211 283.087 139.304C281.992 139.469 281.979 139.272 280.976 139.043C278.823 138.55 276.995 138.725 275.294 137C274.412 136.918 274.698 137.795 274.083 137.709C273.637 137.646 273.352 136.751 272.896 136.537C271.478 135.87 269.118 136.033 267.566 135.825C265.981 135.613 264.579 134.845 263.061 134.618C262.437 134.524 261.981 134.646 261.389 134.831ZM243.487 154.797C243.786 155.993 245.1 154.436 245.121 155.374L245.12 155.458L245.117 155.436C245.048 155.278 243.719 157.167 243.797 157.104C243.083 157.681 242.667 157.627 241.858 156.964C243.306 156.905 243.147 155.946 243.487 154.797ZM239.452 156.487C238.923 156.799 238.761 156.001 238.487 155.514C239.078 155.198 239.165 155.933 239.452 156.487ZM241.088 151.283C240.882 152.06 240.897 152.656 240.897 153.458C239.674 153.272 239.29 153.177 239.267 151.78L239.921 152.222C240.264 151.493 240.339 151.436 241.088 151.283ZM250.548 152.584C250.271 152.393 249.995 152.201 249.718 152.009C250.126 151.378 250.852 152.128 250.548 152.584ZM247.456 140.976C247.103 140.777 246.749 140.578 246.396 140.379C247.313 139.123 247.38 139.545 247.456 140.976ZM248.734 131.017H250.124C249.852 131.976 248.734 132.183 248.734 131.017ZM112.564 75.1995C112.247 75.3984 111.929 75.5974 111.612 75.7957C112.437 76.6029 113.451 77.4167 112.648 78.3629C112.01 79.114 109.031 79.4723 108.138 79.7459C108.448 80.1284 109.086 81.1735 109.508 81.4367C109.843 81.6449 110.148 80.8202 110.823 81.6416C109.704 82.2647 110.004 81.7927 110.295 83.1142C110.466 83.8939 111.079 84.7313 111.425 85.4308C112.267 87.1326 113.128 88.8233 114.011 90.5009C115.822 93.9412 117.728 97.3243 119.732 100.64C120.069 98.7672 119.103 96.6688 118.602 94.8621C117.972 92.5883 117.34 90.3157 116.706 88.0436C115.481 83.6654 114.382 79.3327 112.564 75.1995ZM161.171 80.9125C162.076 81.1603 162.669 81.3219 163.605 81.5779C162.246 82.0428 162.245 82.0428 161.171 80.9125ZM121.09 72.4731C122.245 73.0533 122.368 73.4748 121.434 74.1847C121.323 73.6325 121.242 73.2275 121.09 72.4731ZM121.231 58.7421C121.387 59.479 122.358 58.7702 122.573 59.3087C123.065 60.5406 121.5 60.3735 120.936 60.2994C121.034 59.7801 121.133 59.2614 121.231 58.7421ZM114.689 57.8069C114.998 59.3823 114.998 59.3823 113.567 59.6191C113.943 59.0125 114.258 58.5037 114.689 57.8069ZM140.641 56.7195L140.643 56.7362C140.643 56.7426 140.638 56.7468 140.631 56.7485L140.616 56.7492L140.641 56.7195Z" fill="#6CAEFF"/>
<path fill-rule="evenodd" clip-rule="evenodd" d="M321.563 221.724C321.78 222.923 322.323 223.488 321.754 224.59C321.272 225.526 319.888 226.138 318.959 225.901L321.563 221.724ZM346.726 179.059L351.308 180.745C350.056 182.064 348.862 183.451 347.482 184.623L346.726 179.059ZM271.156 183.378C273.341 182.195 275.789 182.062 278.184 181.91C277.82 184.022 277.456 186.134 277.091 188.246C275.113 186.623 273.134 185 271.156 183.378ZM323.624 346.845C324.06 346.016 327.035 339.609 327.653 339.939C327.981 340.113 328.006 343.679 328.054 344.187C328.225 345.991 328.396 347.795 328.566 349.6C326.807 348.933 324.928 348.379 323.624 346.845ZM344.404 295.054C343.954 296.47 343.504 297.886 343.054 299.302C342.84 299.975 342.715 300.968 342.336 301.562C341.845 302.332 342.216 302.786 341.559 301.942C340.854 301.036 340.643 298.619 340.337 297.509C339.872 295.823 339.407 294.138 338.943 292.452C341.133 292.432 342.461 294.369 344.404 295.054ZM390.44 211.676C393.133 213.654 395.86 215.615 398.204 218.072C396.142 217.934 393.271 219.457 391.329 218.742C390.433 218.947 390.137 218.582 390.44 217.644V215.697V211.676ZM350.499 225.662V237.205C347.984 234.903 345.337 232.766 342.917 230.346C345.444 228.785 347.971 227.223 350.499 225.662ZM260.589 255.571C261.383 260.709 261.427 265.997 261.645 271.198C261.683 272.121 262.014 273.51 261.441 274.319C260.867 275.129 259.23 275.578 258.398 276.011C256.057 277.23 253.731 278.483 251.397 279.717C254.461 271.668 257.525 263.619 260.589 255.571ZM201.153 223.968C195.377 220.92 189.602 217.871 183.826 214.822C189.489 212.248 195.152 209.674 200.814 207.1C200.927 212.723 201.04 218.346 201.153 223.968ZM260.602 238.321C259.546 238.403 259.379 234.085 259.205 232.944C258.872 230.776 258.531 228.611 258.182 226.446C257.482 222.12 256.747 217.8 255.974 213.488C254.426 204.866 252.72 196.276 250.828 187.733C252.861 187.339 254.728 187.057 256.713 186.421C258.316 185.908 260.226 186.187 261.657 185.12C261.843 189.123 260.912 193.379 260.567 197.382C260.168 202.013 259.954 206.621 259.989 211.273C260.059 220.29 260.378 229.308 260.602 238.321ZM393.537 360.481C392.536 360.195 393.899 345.461 393.96 343.337C394.134 337.185 394.167 331.029 394.065 324.876C399.458 328.507 404.975 331.851 410.672 334.867C409.208 336.907 407.836 339.106 406.216 341.004C404.547 342.958 402.632 344.56 401.085 346.665C397.97 350.904 395.837 355.716 393.537 360.481ZM263.772 273.324C263.521 268.892 263.289 264.47 262.872 260.052C262.695 258.171 261.002 248.18 263.712 248.415C265.253 248.548 267.957 250.97 269.37 251.819C271.237 252.94 273.106 254.058 274.982 255.162C278.684 257.34 282.41 259.47 286.125 261.622C278.674 265.523 271.223 269.423 263.772 273.324ZM279.859 181.177C282.945 180.929 285.929 180.683 288.973 180.066C290.614 179.733 292.256 179.779 293.906 179.554C295.088 179.393 297.399 178.351 298.5 178.692C299.884 179.121 300.386 186.567 300.577 188.436C300.883 191.446 301.09 195.098 299.838 197.925C297.424 203.376 290.922 199.121 287.759 196.835C285.047 194.874 281.975 192.889 279.57 190.509C277.44 188.401 279.352 183.901 279.859 181.177ZM263.854 240.452C261.529 239.442 261.566 238.173 261.464 235.561C261.342 232.387 261.27 229.21 261.186 226.034C261.035 220.376 260.893 214.715 260.94 209.053C260.985 203.522 261.238 198 261.827 192.504C262.035 190.561 261.828 187.241 262.782 185.583C263.652 184.071 266.354 184.055 267.829 184.149C269.491 184.254 270.837 185.949 272.064 187.02C273.422 188.208 276.214 189.879 276.436 191.65C276.686 193.627 275.674 196.448 275.282 198.365C273.849 205.364 272.105 212.294 270.268 219.181C268.362 226.327 266.431 233.544 263.854 240.452ZM322.931 223.699C322.781 222.126 322.236 220.813 322.973 219.315C323.606 218.027 324.637 216.733 325.411 215.514C327.627 212.022 330.111 208.676 332.525 205.34C334.736 202.284 337.001 199.261 339.318 196.298C340.608 194.648 341.939 193.033 343.261 191.412C344.23 190.226 345.148 188.559 346.518 187.938C347.527 194.75 348.361 201.591 349.012 208.454C349.327 211.771 349.598 215.093 349.825 218.419C349.89 219.357 350.568 222.527 350.135 223.401C349.679 224.319 346.892 225.548 346.039 226.111C343.655 227.684 341.802 230.055 339.534 227.468C337.973 225.687 336.715 223.176 334.97 221.621C334.061 220.812 333.205 220.849 332.185 220.369C330.999 219.81 330.962 219.272 329.545 220.032C327.158 221.312 325.708 223.203 322.931 223.699ZM442.442 258.748C442.442 263.464 442.743 267.341 439.766 271.159C437.164 274.495 434.461 275.267 430.801 276.584C428.647 277.358 428.496 276.644 426.75 275.335C425.091 274.092 423.284 273.095 421.647 271.813C418.12 269.049 414.595 266.198 411.167 263.291C410.015 262.313 410.185 262.647 410.36 261.474C410.52 260.405 411.234 259.044 411.625 258.028C412.331 256.189 413.163 254.409 413.995 252.632C414.941 250.617 415.764 248.428 416.938 246.549C417.425 245.769 418.003 245.063 418.572 244.352C419.769 242.855 419.726 242.911 421.158 244.134C424.179 246.718 426.991 249.516 430.391 251.536C434.415 253.928 438.429 256.335 442.442 258.748ZM351.331 222.215C350.895 215.445 350.403 208.711 349.647 201.972C349.258 198.511 348.807 195.06 348.367 191.606C348.188 190.2 347.497 187.84 347.882 186.474C348.26 185.129 349.929 183.85 350.845 182.877C351.091 182.616 351.848 181.518 352.174 181.469C352.522 181.417 353.834 182.448 354.212 182.68C355.55 183.504 356.863 184.37 358.157 185.271C360.595 186.97 362.957 188.792 365.268 190.683C370.115 194.648 374.737 198.914 379.482 203.017C375.135 207.108 369.785 210.284 364.925 213.597C362.052 215.556 359.164 217.493 356.238 219.361C354.755 220.307 353.034 221.754 351.331 222.215ZM410.749 343.289C414.259 345.781 417.611 348.411 421.58 350.01C425.532 351.602 429.437 352.215 433.521 353.161C435.581 353.639 437.517 354.161 439.619 354.495C440.797 354.682 442.62 354.61 443.694 355.144C444.651 354.925 444.991 355.275 444.715 356.194C444.705 356.48 444.695 356.766 444.685 357.052C444.414 361.026 442.035 365.809 439.96 369.04C438.749 370.927 437.206 372.682 435.672 374.268C433.94 376.059 432.942 377.321 430.528 376.571C426.459 375.306 422.869 372.761 418.745 371.638C415.483 370.75 412.773 368.889 409.592 367.926C405.668 366.738 401.786 365.384 397.808 364.392C399.585 360.709 401.174 356.875 403.448 353.501C405.781 350.04 408.354 346.713 410.749 343.289ZM389.223 219.371C381.883 220.94 373.927 222.392 367.357 226.461C364.794 228.049 361.544 230.504 360.793 233.788C359.896 237.714 363.424 240.145 366.372 241.37C369.911 242.841 373.763 243.405 377.513 243.869C379.498 244.114 381.492 244.248 383.486 244.37C385.1 244.469 387.837 244.088 389.313 244.775C390.237 244.577 390.557 244.979 390.274 245.982C390.291 246.342 390.308 246.702 390.325 247.062L390.478 250.299C390.58 252.454 390.682 254.609 390.784 256.765C391.005 261.459 391.228 266.155 391.449 270.849C387.605 268.292 384.506 264.629 380.749 261.901C378.962 260.603 377.189 259.303 375.409 258.01C374.663 257.468 374.207 256.708 373.473 256.204C372.499 255.534 371.636 255.131 370.722 254.253C366.992 250.671 362.844 247.574 358.887 244.285C357.09 242.791 355.122 241.417 353.412 239.814C351.621 238.135 351.869 236.753 351.913 234.339C351.959 231.783 351.085 228.61 351.491 226.145C351.15 225.309 351.412 224.789 352.274 224.584C352.85 224.189 353.426 223.793 354.002 223.397C355.151 222.608 356.3 221.819 357.449 221.031C362.019 217.893 366.588 214.754 371.158 211.616C373.441 210.048 375.724 208.481 378.007 206.913C378.645 206.476 380.725 204.498 381.44 204.556C382.17 204.615 383.436 206.145 383.983 206.632C384.822 207.378 385.637 208.163 386.543 208.816C386.995 209.153 387.467 209.453 387.958 209.717C388.744 209.798 389.016 210.262 388.777 211.106C389.467 213.482 389.088 216.876 389.223 219.371ZM287.436 331.38C289.098 323.037 291.241 313.156 297.724 307.481C304.299 301.725 313.912 303.949 319.055 310.709C321.631 314.094 323.228 318.097 324.415 322.245C325.632 326.503 327.427 332.05 327.098 336.552C326.955 338.526 325.38 340.647 324.479 342.37C323.551 344.148 322.934 346.698 320.745 346.082C317.351 345.127 313.899 342.933 310.722 341.363C307.51 339.775 304.127 338.468 300.796 336.934C298.584 335.916 296.288 335.141 294.082 334.108C291.99 333.129 289.23 332.893 287.436 331.38ZM189.221 281.684C184.585 283.466 182.175 280.614 178.913 277.402C175.823 274.361 172.474 271.435 169.629 268.129C166.694 264.72 164.373 260.691 162.117 256.754C159.835 252.774 156.752 248.476 155.347 244.044C154.633 241.79 154.328 239.292 153.878 236.961C153.769 236.4 153.042 234.313 153.273 233.841C153.591 233.192 155.615 233.123 156.171 233.029C160.595 232.278 165.283 232.24 169.72 232.912C178.305 234.211 185.485 239.381 188.199 248.421C191.379 259.018 189.851 270.797 189.221 281.684ZM219.281 189.766C219.353 191.601 215.257 192.111 214.195 192.539C211.742 193.527 209.302 194.57 206.92 195.739C202.014 198.147 196.783 199.716 192.086 202.627C181.959 208.903 170.966 213.327 160.736 219.329C159.142 220.265 156.027 222.518 154.206 222.328C153.238 222.226 153.959 223.063 153.332 221.411C153.106 220.817 153.031 220.043 152.904 219.407C152.525 217.498 152.232 215.572 151.806 213.674C151.106 210.551 150.39 207.653 150.095 204.442C149.97 203.082 149.832 201.723 149.818 200.354C149.802 198.968 149.505 195.493 150.088 194.292C150.475 193.496 150.552 193.769 151.518 193.544C152.072 193.416 152.653 193.148 153.186 192.969C154.439 192.551 155.694 192.149 157.008 192.025C158.306 191.903 159.134 191.479 160.352 191.233C161.629 190.975 162.941 191.288 164.242 190.928C165.647 190.538 166.317 190.182 167.785 190.331C169.208 190.475 169.618 190.137 171.011 189.72C172.174 189.373 173.56 189.616 174.772 189.51C176.239 189.382 177.702 189.185 179.17 189.06C185.771 188.499 192.45 189.331 199.067 189.265C202.665 189.23 206.185 189.8 209.778 189.624C212.918 189.47 216.164 189.506 219.281 189.766ZM202.108 227.125C205.319 228.438 208.297 230.571 211.274 232.408C214.707 234.526 217.993 236.777 221.17 239.317C226.512 243.589 232.746 248.71 234.152 256.164C235.594 263.814 229.408 270.082 223.607 273.212C216.992 276.78 209.297 278.626 202.051 279.989C202.826 262.379 202.643 244.74 202.108 227.125ZM298.174 268.584C300.122 269.162 301.771 270.4 303.579 271.316C305.197 272.136 306.764 272.755 308.276 273.811C310.74 275.533 313.596 277.006 316.172 278.338C322.546 281.631 328.734 285.72 335.045 289.37C336.717 290.338 337.265 290.949 337.832 292.94C338.447 295.103 339.027 297.28 339.619 299.451C340.172 301.475 341.054 303.64 340.822 305.776C340.619 307.635 339.724 309.389 339.049 311.084C337.349 315.352 335.506 319.551 333.602 323.716C331.893 327.456 330.334 331.424 328.141 334.861C326.436 325.315 324.907 314.618 318.299 307.344C311.696 300.074 301.163 299.972 294.8 307.475C291.777 311.04 289.937 315.529 288.491 320.04C287.732 322.41 287.222 324.825 286.733 327.272C286.211 329.886 286.34 331.274 283.653 330.482C281.52 329.852 279.258 329.35 277.166 328.633C276.082 328.261 275.023 327.842 274.974 326.922C274.912 325.76 276.369 323.38 276.8 322.287C279.022 316.643 281.245 310.999 283.468 305.355C285.882 299.227 288.296 293.098 290.711 286.97C291.915 283.913 293.12 280.855 294.325 277.798C295.425 275.011 296.34 270.872 298.174 268.584ZM201.927 220.926C201.892 218.139 201.849 215.353 201.815 212.566C201.794 210.906 201.105 207.694 202.452 206.508C203.287 205.773 205.764 205.209 206.821 204.706C208.905 203.713 211.161 203.271 213.258 202.285C221.469 198.422 230.014 195.206 238.468 192.093C240.291 191.422 242.154 190.872 243.989 190.211C244.98 189.854 248.649 187.759 249.566 188.307C250.369 188.787 250.974 194.501 251.231 195.688C251.839 198.497 252.421 201.313 252.98 204.134C255.15 215.086 256.97 226.115 258.663 237.163C254.166 235.329 249.856 232.152 245.607 229.696C241.194 227.145 236.795 224.6 232.352 222.107C231.098 221.403 226.685 218.169 225.652 219.438C223.996 221.475 227.943 223.864 228.979 224.737C232.987 228.113 237.221 231.055 241.507 233.999C245.948 237.051 250.57 239.747 255.034 242.742C256.646 243.824 259.218 245.14 259.851 246.967C260.666 249.316 260.078 252.172 259.336 254.417C257.514 259.933 255.519 265.381 253.409 270.777C252.45 273.23 251.466 275.673 250.463 278.106C249.27 281.004 247.703 281.616 245.102 282.95C234.021 288.632 222.512 294.024 211.869 300.598C213.65 302.803 217.991 299.183 219.749 298.266C223.005 296.568 226.263 294.876 229.516 293.173C235.577 290.001 241.606 286.766 247.701 283.67C243.795 293.209 239.185 302.4 234.074 311.255C235.365 311.725 235.05 311.749 235.86 310.916C236.542 310.214 237 308.839 237.462 307.958C238.418 306.137 239.36 304.31 240.323 302.494C242.319 298.725 244.389 295.013 246.212 291.142C247.584 288.23 248.646 283.141 251.464 281.673C254.976 279.844 258.535 278.063 262.047 276.207C262.047 290.711 261.076 304.892 259.651 319.306C259.579 320.033 258.93 322.178 260.239 321.968C260.829 321.873 261.028 317.896 261.131 317.066C261.607 313.259 262.011 309.442 262.341 305.618C262.999 297.986 263.356 290.323 263.402 282.659C264.245 290.111 265.088 297.562 265.931 305.014L267.129 315.606C267.338 317.461 267.548 319.315 267.758 321.17C267.854 322.022 267.793 323.136 268.072 323.948C268.511 325.227 268.363 325.129 269.738 325.712C268.424 316.009 267.209 306.289 266.135 296.552C265.611 291.8 265.12 287.045 264.667 282.286C264.545 281.006 264.426 279.725 264.309 278.445C264.25 277.792 263.726 275.693 264.017 275.151C264.305 274.613 266.215 274.053 266.765 273.779C267.969 273.179 269.173 272.579 270.376 271.976C274.282 270.016 278.184 268.04 282.047 265.984C283.736 265.085 285.509 263.695 287.346 263.215C289.175 262.738 290.506 264.105 292.07 264.974C293.288 265.651 296.156 266.551 296.969 267.7C297.726 268.77 295.375 273.049 294.758 274.626C293.016 279.077 291.275 283.529 289.533 287.979C286.001 297.004 282.469 306.029 278.938 315.054C278.074 317.259 277.211 319.466 276.348 321.672C275.795 323.086 274.871 327.114 273.529 327.272C272.935 327.342 271.959 326.648 271.385 326.448C270.528 326.151 269.737 326.156 268.878 325.999C267.303 325.712 265.667 324.84 264.12 324.227C260.145 322.654 256.023 321.638 252.016 320.168C247.989 318.691 244.029 317.033 240.018 315.556C236.376 314.215 232.701 312.687 229.202 310.94C225.506 309.096 221.717 307.469 218.116 305.424C211.558 301.699 205.071 298.221 199.276 293.652C197.914 292.578 196.463 291.499 195.115 290.349C193.933 289.34 191.679 288.094 190.874 286.767C190.568 286.261 190.304 285.268 190.662 284.668C191.047 284.023 192.749 284.081 193.544 283.966C196.052 283.605 198.559 283.243 201.067 282.881C200.874 284.652 200.68 286.422 200.54 288.199C200.442 289.454 199.752 292.769 200.683 293.752C201.963 292.446 201.552 288.538 201.666 286.797C201.728 285.867 201.507 284.046 201.895 283.221C202.32 282.316 203.495 282.328 204.56 282.081C209.076 281.032 213.55 280.152 217.92 278.49C225.301 275.683 234.125 270.942 235.774 261.799C237.492 252.267 229.939 244.008 223.58 238.692C219.773 235.51 215.722 232.754 211.532 230.196C209.574 229 207.617 227.805 205.647 226.635C204.93 226.21 202.576 225.333 202.198 224.589C201.811 223.828 202.009 221.793 201.927 220.926ZM359.854 367.31C360.212 367.498 360.571 367.686 360.928 367.874C356.944 355.683 352.998 343.548 349.667 331.129C348.059 325.135 346.43 319.146 344.768 313.169C344.05 310.591 342.287 307.04 342.777 304.369C343.307 301.478 344.578 298.404 345.561 295.654C351.857 299.904 358.285 303.936 364.685 307.992C370.423 311.631 376.258 314.866 382.037 318.466C384.997 320.31 388.052 321.555 391.142 323.062C393.653 324.287 392.678 328.03 392.642 330.531C392.515 339.36 392.521 348.22 392.022 357.037C391.841 360.249 392.075 363.936 390.171 366.609C387.736 370.027 385.477 373.511 383.256 377.109C382.424 378.457 378.928 385.755 377.625 385.595C376.774 385.491 375.991 382.536 375.565 381.835C374.647 380.325 373.306 379.025 372.085 377.809C366.812 372.556 360.961 368.856 354.881 365.017C348.703 361.117 342.38 357.486 336.086 353.788C334.664 352.952 333.132 352.349 331.719 351.495C331.161 351.158 330.054 350.622 329.703 350.019C329.177 349.117 329.355 346.618 329.246 345.539C329.022 343.336 328.619 341.046 328.597 338.826C328.576 336.634 329.804 334.75 330.694 332.838C334.6 324.443 338.396 316.028 341.795 307.379C344.474 317.422 347.288 327.418 349.917 337.476C351.289 342.728 352.943 347.895 354.554 353.066C355.377 355.707 356.204 358.346 357.025 360.988C357.665 363.045 357.997 366.058 359.854 367.31ZM303.748 178.032C305.819 178.057 307.696 177.73 309.722 177.266C310.465 177.096 311.117 177.024 311.871 176.953C312.725 176.872 313.501 176.375 314.249 176.278C314.815 176.205 315.803 176.46 316.344 176.654C317.596 177.105 317.556 176.877 317.609 178.439C317.691 180.852 317.752 183.265 317.875 185.676C318.361 195.165 319.299 204.561 320.585 213.958C320.846 215.858 321.574 218.349 321.174 220.236C320.813 221.936 319.444 223.753 318.54 225.179C316.681 228.113 312.303 229.563 309.223 230.394C305.975 231.272 302.603 231.595 299.517 232.378C298.662 232.595 297.681 232.212 296.769 232.43C295.927 232.631 295.272 233.128 294.493 233.487C292.585 234.367 290.453 234.529 288.483 235.208C284.575 236.555 280.391 236.474 276.48 237.767C275.48 238.098 274.617 238.931 273.655 239.216C272.775 239.476 271.869 239.17 270.949 239.315C268.998 239.624 267.179 240.34 266.729 242.588C265.537 241.574 265.371 241.841 265.577 240.272C265.709 239.267 266.231 238.043 266.516 237.073C267.244 234.602 267.976 232.132 268.703 229.66C270.141 224.769 271.571 219.875 272.897 214.948C274.083 210.54 275.162 206.099 276.105 201.624C276.584 199.349 276.985 197.064 277.396 194.776C277.515 194.112 277.397 193.057 278.018 192.616C278.581 192.215 279.897 193.652 280.492 194.116C284.648 197.349 294.182 206.911 299.379 201.27C302.178 198.233 302.014 192.893 301.71 188.968C301.524 186.556 301.129 184.175 300.688 181.803C300.578 181.212 299.904 179.311 300.151 178.889C300.417 178.436 303.192 178.165 303.748 178.032ZM157.694 230.813C156.587 230.946 155.481 231.079 154.375 231.213C154.476 230.253 154.385 228.809 154.723 227.915C155.192 226.679 156.337 226.542 157.598 226.029C159.591 225.22 161.624 224.516 163.596 223.645C167.875 221.754 172.134 219.836 176.416 217.945C178.292 217.116 180.497 215.76 182.535 216.437C184.732 217.167 186.901 218.655 188.955 219.745C191.281 220.979 193.605 222.216 195.93 223.453C197.02 224.033 198.11 224.613 199.2 225.193C200.913 226.104 201.14 226.196 201.276 228.277C201.964 238.922 201.913 249.98 201.613 260.638C201.459 266.078 201.631 271.547 201.268 276.977C201.24 277.394 201.269 279.751 201.025 280.072C200.682 280.525 198.269 280.678 197.692 280.792C195.443 281.233 193.179 281.38 190.907 281.598C191.442 269.217 193.408 254.58 187.487 243.256C181.54 231.878 168.826 229.414 157.694 230.813ZM261.09 109.01C260.423 107.379 259.275 106.002 258.293 104.571C257.763 103.797 256.845 102.872 256.505 101.967C256.021 100.679 256.024 100.955 256.746 99.8272C257.43 98.7612 257.416 98.681 258.472 98.4903C259.361 98.3299 260.308 98.6024 261.217 98.4277C262.135 98.2508 264.66 97.42 264.081 95.8506C264.106 95.9193 262.645 95.1462 262.532 95.0121C262.165 94.583 262.049 93.6681 261.868 93.1494C261.284 91.4867 261.08 90.4103 261.729 88.6398C262.701 85.9963 266.54 85.2138 268.929 86.1034C270.124 86.5474 270.805 87.4892 271.342 88.6728C271.683 89.4245 271.763 90.5108 272.204 91.1652C272.869 92.1505 272.91 92.0411 274.289 91.8669C276.045 91.6455 277.485 90.9213 279.148 90.4163C280.96 89.8657 282.139 90.9856 283.722 91.8884C286.581 93.5192 289.341 94.0852 292.543 94.344C296.109 94.6325 299.413 93.7093 302.944 93.4714C302.028 98.0019 299.659 101.68 297.766 105.782C297.433 106.504 296.895 107.241 296.883 108.076C296.869 108.862 297.929 109.932 297.81 110.583C297.555 111.971 294.71 113.082 293.633 113.472C290.584 114.576 287.113 116.737 283.758 115.869C281.919 115.393 280.929 112.275 279.198 112.045C276.876 111.737 278.613 114.948 279.044 116.052C275.749 116.59 271.571 116.134 268.416 114.934C266.835 114.333 265.495 113.436 264.052 112.546C262.255 111.438 261.881 111.134 261.09 109.01ZM318.768 176.436C324.644 176.541 330.606 175.633 336.496 176.467C337.86 176.66 339.206 176.971 340.547 177.302C341.511 177.54 344.571 177.741 345.214 178.51C345.799 179.212 345.803 182.443 345.924 183.353C346.193 185.381 346.121 186.081 344.917 187.648C340.955 192.807 336.829 197.811 332.925 203.027C329.176 208.037 326.098 213.635 322.307 218.575C320.283 212.247 320.162 204.654 319.606 198.02C319.31 194.482 319.04 190.942 318.787 187.401C318.546 184.028 317.726 179.652 318.768 176.436ZM394.824 243.119C394.145 243.119 393.061 243.348 392.4 243.119C391.492 243.43 391.189 243.064 391.489 242.022C391.475 241.658 391.46 241.293 391.446 240.928C391.351 238.578 391.247 236.228 391.145 233.878C391.052 231.73 390.961 229.581 390.883 227.432C390.828 225.965 390.138 222.328 390.69 221.003C391.061 220.112 391.94 220.314 393.009 220.184C394.026 220.06 395.046 219.946 396.057 219.777C397.34 219.562 398.763 219.069 400.069 219.377C401.381 219.688 402.334 220.988 403.364 221.816C404.993 223.124 406.658 224.384 408.301 225.672C411.287 228.014 414.244 230.399 417.205 232.776C418.428 233.758 418.663 233.417 418.067 234.828C417.698 235.7 416.859 236.686 416.348 237.473C415.332 239.042 414.319 241.419 413.015 242.691C411.117 244.543 405.85 243.367 403.329 243.354C400.454 243.339 397.683 243.386 394.824 243.119ZM387.383 242.966C384.89 242.704 382.371 242.817 379.894 242.457C377.2 242.065 374.526 241.486 371.837 241.051C369.157 240.619 361.002 238.869 361.807 234.573C362.658 230.032 368.9 227.312 372.354 225.785C377.749 223.401 383.381 222.125 389.055 220.777C389.767 224.847 389.665 229.217 389.795 233.342C389.865 235.583 389.927 237.826 389.926 240.068C389.926 240.608 390.099 241.727 389.894 242.229C389.411 243.41 388.851 242.966 387.383 242.966ZM395.582 244.917H411.494C409.139 250.151 406.913 255.483 404.375 260.619C401.846 265.734 398.591 270.554 395.722 275.464C394.995 274.615 393.836 273.695 393.343 272.684C392.795 271.566 392.811 269.922 392.721 268.628C392.489 265.269 392.383 261.881 392.304 258.515C392.235 255.567 392.114 252.639 391.904 249.698C391.858 249.053 391.195 245.703 391.574 245.152C391.912 244.662 394.886 244.922 395.582 244.917ZM330.049 142.143C327.364 142.143 324.676 142.106 321.993 142.155C319.557 142.199 316.383 141.744 314.152 143.09C309.606 145.833 318.693 152.878 320.536 154.652C317.556 155.811 312.906 153.51 309.99 152.455C306.383 151.152 302.705 150.277 299.027 149.256C298.108 149.001 294.162 148.501 293.664 147.745C293.169 146.995 294.277 142.47 294.388 141.516C294.492 140.618 294.404 139.219 294.752 138.375C294.539 137.362 294.87 137.006 295.747 137.311C296.05 137.309 296.352 137.308 296.655 137.307C298.893 137.326 301.133 137.437 303.37 137.517C311.058 137.792 318.559 138.158 326.182 139.447C329.726 140.046 333.3 140.783 336.826 141.518C339.793 142.137 339.294 142.656 336.522 142.664C334.355 142.67 332.205 142.324 330.049 142.143ZM109.508 81.4367C109.052 80.8735 108.595 80.3097 108.138 79.746C109.251 79.4047 110.364 79.063 111.477 78.7217C112.661 78.3591 113.298 78.4421 112.771 77.0222C112.112 75.2435 109.101 75.0397 107.654 74.9726C102.671 74.7413 97.4375 76.4436 92.7041 77.9431C90.3947 78.675 88.5843 79.8075 86.63 81.3136C85.777 81.9714 84.792 82.589 84.0453 83.3791C83.2696 84.2 82.9467 85.2517 82.1883 86.0749C80.9443 87.4244 79.3524 88.0964 78.7424 90.0443C78.0424 92.2801 78.878 94.8396 79.9142 96.7892C80.9653 98.7678 82.5266 100.264 83.7946 102.062C84.8012 103.488 86.9028 107.386 83.6186 106.934C81.8818 106.695 79.6292 103.515 78.3791 102.248C76.5876 100.431 74.8252 98.5717 72.9277 96.8793C71.2452 95.3787 69.3068 93.8401 67.0568 93.5764C64.6855 93.2983 63.5009 94.9281 62.3449 96.91C61.2549 98.7794 61.0799 100.604 60.3134 102.517C59.9434 103.44 59.4726 103.954 59.2551 104.96C58.921 106.507 58.8862 108.194 58.7158 109.771C58.4476 112.248 58.1954 114.195 58.6421 116.622C59.0607 118.893 59.1748 121.305 59.5273 123.615C59.9265 126.232 60.2586 128.861 60.6521 131.478C60.9852 133.696 62.2527 136.854 61.0093 138.917C58.0219 143.872 54.4378 136.577 53.4942 133.852C51.8352 129.062 50.9909 123.827 49.5269 118.939C48.7429 116.325 48.0587 113.687 47.6094 110.981C47.2374 108.743 47.4206 106.016 46.2784 104.023C45.3906 102.474 43.8114 101.298 42.0782 101.771C39.9096 102.363 39.0765 105.729 38.4384 107.775C36.7544 113.172 37.3741 118.033 38.0598 123.537C38.377 126.085 38.6799 128.638 39.2249 131.144C39.5928 132.834 41.1162 136.257 38.8514 137.176C35.6404 138.48 32.2369 128.589 31.3219 126.355C28.9261 120.505 28.0085 114.703 27.0209 108.434C26.7943 106.993 26.6208 105.521 26.2815 104.104C25.9862 102.871 25.104 101.625 25.0247 100.392C24.9454 99.158 25.7063 98.2969 24.9265 97.0853C24.2776 96.077 23.1053 96.016 22.046 96.0072C19.558 95.9864 17.178 97.1595 14.8635 98.0107C12.7092 98.8025 9.52271 100.54 7.20105 99.9805C14.4874 92.0367 21.7553 84.183 30.4459 77.9964C34.4813 75.1232 38.5198 72.3621 42.8817 70.0191C47.2998 67.6459 52.3628 66.0431 57.0947 64.6073C59.6681 63.8259 62.2272 62.9407 64.7684 62.0445C67.0307 61.2467 69.3078 61.0955 71.5231 60.1906C76.3358 58.2251 81.7134 57.4635 86.6966 56.07C88.8969 55.4551 91.1214 54.9276 93.3269 54.3578C95.645 53.7589 98.9016 52.7187 101.263 52.8198C103.28 52.9061 103.961 55.3881 104.931 57.1146C106.34 59.6207 107.541 62.2247 108.649 64.8979C110.918 70.3752 113.313 76.0337 114.936 81.756C115.827 84.8979 116.707 88.0431 117.583 91.19C118.34 93.9143 120.235 97.8442 119.732 100.64C116 94.4643 112.525 88.0508 109.508 81.4367ZM283.254 137.2C285.234 137.297 287.214 137.393 289.194 137.49C287.22 144.457 287.495 151.876 287.495 159.098C278.269 157.93 268.969 157.731 259.689 157.812C261.394 154.28 260.733 149.698 260.247 145.916C259.963 143.702 259.804 141.57 259.845 139.336C259.884 137.241 259.322 135.479 261.389 134.831C263.029 134.317 264.066 135.174 265.628 135.564C267.5 136.032 269.538 136.088 271.443 136.343C275.408 136.872 279.232 137.182 283.254 137.2ZM336.416 150.769C330.47 148.998 324.152 149.651 318.177 148.304C319.536 146.973 322.096 147.762 323.901 147.873C325.953 147.998 328.004 148.09 330.056 148.197C332.057 148.302 337.608 148.139 338.33 150.873C337.693 150.839 337.054 150.804 336.416 150.769ZM118.864 52.0385C126.644 52.7715 134.792 52.6577 142.516 54.1155C151.362 55.7848 160.583 56.8321 169.16 59.774C177.573 62.6605 186.154 64.6809 194.448 68.0701C202.51 71.3648 210.276 74.8699 217.869 79.2767C221.585 81.4334 225.201 83.7198 228.744 86.1968C232.203 88.6151 235.993 90.5976 239.344 93.1609C242.327 95.4429 244.901 97.5359 247.502 100.332C250.283 103.321 252.988 106.391 255.772 109.375C258.095 111.865 256.624 117.952 256.477 121.265C256.272 125.859 255.92 130.388 255.395 134.951C254.896 139.3 254.383 143.973 255.042 148.313C255.319 150.137 256.275 153.288 255.819 155.109C255.454 156.568 253.031 157.637 251.795 158.112C250.284 158.693 248.74 158.448 247.189 159.188C245.457 160.015 243.996 161.046 242.157 161.48C239.889 162.016 237.34 162.467 235.01 162.483C232.855 162.498 230.693 163.248 228.544 163.709C225.049 164.461 221.637 164.695 221.855 169.221C222.106 174.443 224.036 178.924 225.185 183.882C223.631 183.882 222.548 183.988 221.125 183.396C219.464 182.706 217.692 182.523 215.947 182.225C212.09 181.566 208.331 181.355 204.449 180.935C197.338 180.164 190.104 180.257 182.987 180.338C179.384 180.379 175.476 180.678 171.922 181.28C168.277 181.898 164.501 182.284 160.968 183.469C157.988 184.47 154.911 185.151 151.871 186.034C150.5 186.432 148.859 186.755 147.564 187.2C145.689 187.846 144.686 189.223 142.52 189.192C143.129 184.883 144.561 180.887 145.425 176.615C146.327 172.153 148.126 168.206 150.111 163.997C150.997 162.119 151.653 160.127 152.507 158.233C153.456 156.127 154.792 154.382 155.938 152.413C158.284 148.385 160.789 144.51 163.094 140.453C165.106 136.911 167.404 133.516 169.607 130.097C172.029 126.338 175.394 123.501 178.142 120.052C179.302 118.596 180.407 117.242 181.706 115.906C182.903 114.675 184.601 111.95 186.434 111.823C187.487 111.749 189.312 112.386 190.317 112.727C192.176 113.359 194.149 113.771 196.069 114.328C198.171 114.937 200.236 115.73 202.341 116.309C203.184 116.541 204.184 116.431 204.983 116.693C205.818 116.968 206.485 117.573 207.398 117.85C211.904 119.223 216.383 120.781 220.923 122.031C225.596 123.317 230.342 124.413 234.871 126.236C235.735 126.584 236.696 127.406 237.359 126.865C237.854 126.462 238.173 125.323 238.043 124.658C237.609 122.445 234.312 121.645 232.724 120.757C228.47 118.375 224.244 116.696 219.672 115.079C217.42 114.283 215.176 113.434 212.893 112.747C210.984 112.172 208.998 111.201 207.046 110.907C205.31 110.645 204.078 109.911 202.355 109.261C199.817 108.303 197.206 107.517 194.627 106.699C190.218 105.3 185.545 104.712 181.034 103.774C170.584 101.601 159.734 100.513 149.07 100.648C143.694 100.716 138.071 100.547 132.757 101.497C131.476 101.725 128.783 101.681 127.9 102.916C127.425 103.579 127.682 104.565 127.56 105.283C127.355 106.495 126.739 107.06 126.205 108.164C125.071 102.188 123.768 96.3391 122.303 90.4504C120.979 85.121 119.753 79.6949 117.984 74.4402C116.111 68.8806 113.841 62.9858 111.043 57.8976C110.466 56.8503 109.03 55.1864 108.907 54.015C108.779 52.8061 110.356 51.8698 111.44 51.7352C113.872 51.4335 116.476 51.95 118.864 52.0385ZM66.5983 137.43C65.8067 129.14 63.4927 120.469 64.7853 112.146C65.3323 108.623 65.7596 105.259 67.4007 102.079C68.2307 100.471 68.5633 99.2893 70.1476 100.238C71.7513 101.198 73.2276 103.569 74.5571 104.943C77.0005 107.469 79.5596 110.07 82.4856 111.946C84.7904 113.423 89.3683 114.823 91.1009 111.628C92.7517 108.583 90.5498 104.333 88.9691 101.821C87.1602 98.9464 83.7337 96.2842 85.6567 92.7379C86.4842 91.2114 87.675 90.8114 88.9266 89.8097C90.0099 88.9426 90.9177 87.8195 92.0016 86.937C95.1414 84.3792 98.5853 83.2835 102.211 81.8219C103.885 81.1466 104.105 80.5114 105.072 82.0549C106.122 83.7313 106.697 86.0809 107.456 87.9349C108.977 91.6488 110.599 95.1676 112.56 98.6305C114.539 102.125 116.293 105.776 118.163 109.34C118.869 110.684 119.533 112.051 120.367 113.313C120.821 114 121.383 114.612 121.752 115.364C122.298 116.475 122.055 117.489 122.395 118.595C123.862 123.37 126.001 116.704 126.41 115.146C126.874 113.374 127.995 111.992 128.722 110.338C129.322 108.973 129.732 106.944 131.181 106.301C132.368 105.774 133.898 106.497 135.109 106.567C137.335 106.697 139.578 106.503 141.813 106.653C143.904 106.792 145.989 107.008 148.079 107.145C150.171 107.283 152.261 106.903 154.325 107.14C158.029 107.564 161.816 107.496 165.513 108.084C169.85 108.773 174.143 109.508 178.492 110.082C177.482 112.134 175.387 113.024 173.73 114.488C172.25 115.797 171.077 117.308 169.586 118.553C168.073 119.817 167.174 121.686 165.922 123.205C164.695 124.692 163.559 125.94 162.484 127.604C157.295 135.641 151.944 143.381 147.664 152.067C145.498 156.463 143.43 161.167 141.95 165.883C140.363 170.942 139.584 176.368 138.641 181.599C138.171 184.206 137.925 186.407 138.44 189.029C138.575 189.653 138.715 190.276 138.861 190.898C139.312 191.642 139.146 192.124 138.36 192.346C137.9 193.065 137.273 193.335 137.233 194.318C137.202 195.066 137.59 195.932 138.189 196.353C139.346 197.166 139.346 196.068 140.539 196.311C140.986 196.571 141.433 196.831 141.88 197.09C142.116 196.704 142.359 196.323 142.608 195.947C143.368 195.171 143.973 195.242 144.967 195.053C144.462 201.298 145.267 206.875 146.548 212.968C147.164 215.898 148.219 218.765 148.752 221.7C149.346 224.979 148.047 226.472 146.038 228.659C146.548 228.945 147.441 229.255 147.862 229.682C148.531 230.363 148.36 230.447 148.36 231.512C148.359 233.463 148.707 235.385 148.993 237.304C149.521 240.856 150.003 244.532 151.142 247.933C153.211 254.111 156.555 260.527 159.962 265.968C161.869 269.014 163.78 272.473 166.17 275.101C168.569 277.737 170.946 280.398 173.339 283.042C178.048 288.248 183.194 291.844 188.836 295.742C191.07 297.286 193.424 298.977 195.345 300.899C197.298 302.852 199.895 304.219 202.229 305.638C203.27 306.271 204.011 307.18 205.135 307.7C206.192 308.187 206.93 308.346 207.815 308.986C210.013 310.573 212.387 311.93 214.807 313.126C217.759 314.586 220.663 316.284 223.694 317.529C225.076 318.097 226.375 318.716 227.712 319.379C229.16 320.098 230.722 320.569 232.207 321.334C233.462 321.981 234.732 322.357 236.009 322.886C237.052 323.317 237.871 324.016 238.935 324.468C241.144 325.405 243.155 325.909 245.301 327.014C248.153 328.481 251.532 329.166 254.536 330.222C257.89 331.402 261.369 332.576 264.811 333.412C266.275 333.768 267.523 334.233 268.937 334.772C269.859 335.124 270.915 335.316 271.936 335.649C274.757 336.573 277.577 337.463 280.413 338.248C285.954 339.783 291.614 341.626 296.988 343.709C299.805 344.801 302.663 346.115 305.366 347.506C308.422 349.078 311.714 349.985 314.781 351.541C320.705 354.546 326.609 357.64 332.465 360.795C335.54 362.452 338.572 364.159 341.574 365.961C342.663 366.615 343.855 366.885 344.937 367.526C346.352 368.365 347.514 369.597 348.964 370.428C354.552 373.633 360.255 376.652 365.387 380.706C368.073 382.828 370.959 385.001 373.281 387.585C374.047 388.437 375.374 389.757 375.513 390.994C375.717 392.824 375.525 391.14 374.935 392.269C374.118 392.375 373.934 392.713 374.379 393.28C374.585 393.546 374.848 393.682 375.169 393.687C376.201 393.911 378.132 392.737 378.962 392.246C380.399 391.395 381.162 390.32 382.085 388.892C384.09 385.794 386.046 382.668 388.111 379.613C389.968 376.866 391.786 373.842 393.899 371.319C395.332 369.609 395.439 370.356 397.033 371.32C398.218 372.038 399.595 372.344 400.824 373.019C405.506 375.594 410.652 377.496 415.454 379.291C416.547 379.699 417.13 380.348 418.091 380.912C419.315 381.631 420.866 381.983 422.175 382.494C425.781 383.902 429.369 385.364 432.95 386.845C435.714 387.99 438.37 388.891 440.534 391.003C441.395 391.844 442.438 392.446 443.327 393.296C444.363 394.284 445.763 395.893 447.067 396.453L447.862 397.119C448.399 396.717 448.937 396.317 449.476 395.917C450.01 395.52 450.544 395.124 451.078 394.726C452.417 393.727 453.746 392.713 455.077 391.701C458.096 389.403 461.134 387.128 463.942 384.535C468.93 379.93 474.105 375.571 479.32 371.258C484.794 366.731 490.131 361.993 495.793 357.738C500.924 353.881 506.523 350.624 511.498 346.553C514.003 344.504 516.501 342.442 519.058 340.457C519.197 340.35 521.278 338.979 521.299 338.826C521.334 338.546 520.649 337.815 520.447 337.58C519.49 336.463 518.43 335.468 517.477 334.339C513.034 329.078 507.232 329.261 501.1 329.013C498.32 328.9 495.304 330.277 492.663 331.215C489.434 332.361 486.318 334.043 483.199 335.496C476.77 338.49 470.135 341.049 463.641 343.822C461.088 344.912 458.544 345.444 455.948 346.193C453.314 346.954 450.601 346.229 447.784 346.283C446.322 346.312 444.94 346.403 443.468 346.314C442.594 346.262 441.587 346.083 440.724 346.099C440.024 346.113 439.298 346.422 438.654 346.344C435.836 346.001 432.859 345.52 429.953 345.127C427.067 344.736 424.09 344.542 421.242 343.931C419.808 343.623 418.393 343.188 417.014 342.666C415.816 342.212 413.639 341.698 412.657 340.779C411.778 339.958 412.162 339.947 412.652 338.607C412.846 338.077 413.047 337.274 413.334 336.763C414.112 335.384 414.863 334.95 414.41 333.225C413.614 330.183 410.898 328.241 408.573 326.742C403.336 323.369 398.547 319.041 393.032 316.179C381.67 310.282 371.315 302.621 360.234 296.145C348.054 289.027 336.533 280.673 324.183 273.856C312.688 267.51 301.245 261.126 289.655 254.98C283.995 251.98 277.594 249.234 272.459 245.3C275.304 244.921 278.158 244.431 281.013 244.16C282.337 244.034 283.677 244.151 284.994 243.925C286.466 243.672 287.859 243.032 289.329 242.767C291.856 242.308 294.128 241.378 296.658 241.035C299.37 240.667 302.026 239.811 304.751 239.571C310.451 239.07 315.596 236.812 320.592 233.968C321.829 233.263 322.846 233.666 324.031 233.187C324.684 232.924 325.377 231.871 326.11 231.306C328.13 229.748 329.864 227.91 331.783 226.209C335.819 235.933 343.743 242.547 351.304 249.071C355.135 252.374 359.292 255.175 363.161 258.416C366.161 260.93 368.885 263.179 372.088 265.178C375.163 267.095 378.051 269.686 380.983 271.99C382.97 273.551 385.299 274.73 387.412 276.086C389.138 277.194 392.509 278.846 392.98 280.855C393.365 282.497 392.613 284.451 394.947 283.696C397.036 283.021 398.551 280.53 399.768 278.776C402.915 274.236 405.85 269.542 408.772 264.835C410.342 268.124 413.049 270.493 415.551 272.932C417.071 274.414 418.65 275.789 420.292 277.111C421.088 277.753 421.893 278.382 422.691 279.022C423.005 279.275 423.718 279.664 423.921 280.02C424.397 280.853 424.108 280.475 424.034 281.482C423.918 283.06 423.428 284.301 424.26 285.813C425.04 287.232 426.743 287.838 427.936 288.807C430.775 291.115 433.761 293.567 436.91 295.369C437.625 295.778 438.301 296.132 438.967 296.633C440.078 297.467 439.875 297.77 440.995 296.97C442.747 295.718 444.26 293.639 445.841 292.129C449.153 288.965 452.501 285.841 455.893 282.777C462.356 276.936 469.011 271.386 475.394 265.44C481.46 259.791 487.963 254.927 494.225 249.556C495.943 248.083 497.64 246.579 499.335 245.076C500.845 243.738 503.295 242.263 504.411 240.551C506.033 238.064 499.689 234.666 497.776 234.16C494.476 233.287 490.208 233.786 486.903 234.501C483.434 235.251 479.901 237.76 476.661 239.323C473.009 241.084 469.29 242.607 465.612 244.269C463.971 245.011 462.232 245.602 460.709 246.601C459.093 247.661 457.65 248.87 455.932 249.759C453.952 250.782 451.894 251.737 449.811 252.494C448.868 252.837 447.852 253.181 446.86 253.32C445.456 253.516 445.646 252.821 444.48 252.434C443.489 252.104 443.254 252.975 442.362 253.217C441.523 253.446 440.896 253.214 440.169 252.73C438.549 251.65 437.107 250.161 435.486 249.037C433.983 247.993 432.325 247.018 430.916 245.837C430.288 245.311 429.823 244.589 429.204 244.055C428.212 243.197 427.818 243.537 426.66 242.947C425.712 242.464 424.853 241.565 423.952 240.97C423.393 240.6 422.036 240.133 421.675 239.535C420.728 237.964 422.345 236.872 423.794 237.335C424.011 235.979 425.125 232.758 424.644 231.486C424.218 230.36 423.1 230.571 422.16 229.975C418.628 227.736 416.02 223.666 412.715 221.035C409.599 218.554 406.85 215.592 403.764 213.066C401.12 210.901 398.23 208.788 395.822 206.454C392.976 203.694 389.331 201.547 386.236 199.084C383.039 196.54 380.068 193.709 376.905 191.136C373.862 188.66 370.873 186.075 367.746 183.718C364.935 181.6 361.99 179.665 359.237 177.518C357.73 176.342 356.082 175.309 354.361 174.537C352.65 173.769 351.153 172.868 349.482 172.041C346.162 170.398 341.838 169.262 338.227 168.791C334.257 168.274 330.271 167.809 326.263 167.805C324.128 167.804 322.054 168.24 319.932 168.379C317.983 168.505 315.874 169.035 313.939 168.965C313.062 168.934 312.3 168.535 311.451 168.664C310.742 168.771 310.126 169.23 309.365 169.311C307.672 169.49 305.97 169.311 304.257 169.546C300.324 170.086 296.385 170.855 292.443 171.284C288.244 171.74 284.08 171.827 279.903 172.596C275.82 173.347 271.712 174.126 267.653 174.994C259.027 176.841 250.311 178.643 241.822 181.385C239.837 182.025 237.841 182.635 235.933 183.513C235.008 183.939 234.118 184.456 233.153 184.775C231.77 185.231 231.498 185.404 230.785 184.158C229.559 182.014 228.884 179.178 227.994 176.846C227.114 174.537 226.046 172.211 225.536 169.8C227.019 169.548 228.89 170.038 230.421 170.094C232.292 170.163 234.143 170.12 236.013 170.108C239.78 170.084 242.726 168.889 246.291 167.634C249.296 166.576 253.297 165.97 255.589 163.548C256.818 162.249 257.227 162.021 259.074 162.254C260.938 162.488 262.778 162.893 264.66 162.96C271.751 163.212 278.811 164.541 285.934 164.804C287.861 164.875 292.681 165.855 292.366 162.346C292.3 161.617 291.78 160.985 291.679 160.235C291.57 159.431 291.758 158.615 291.875 157.83C292.154 155.971 292.445 154.113 292.723 152.254C299.219 154.492 305.796 156.306 312.416 158.079C315.161 158.814 319.571 160.505 322.407 159.578C325.149 158.682 323.561 154.533 322.707 152.548C328.155 153.883 333.966 156.066 339.522 156.568C341.212 156.72 342.857 157.122 343.251 154.928C343.564 153.179 342.388 151.041 341.788 149.506C346.052 149.097 350.467 149.136 349.665 143.267C348.929 137.883 344.764 136.811 340.329 135.827C334.855 134.613 329.265 134.208 323.755 133.225C318.961 132.369 313.731 131.415 308.835 131.847C306.243 132.075 303.636 132.127 301.045 132.385C299.823 132.506 298.647 132.71 297.464 133.068C296.373 133.398 294.846 134.42 293.728 134.438C292.039 134.467 290.003 132.015 288.187 131.449C285.938 130.746 283.514 130.619 281.19 130.447C278.555 130.253 275.917 130.145 273.285 129.916C272.684 129.863 270.416 130.023 269.942 129.645C269.252 129.095 269.711 126.274 269.759 125.115C269.804 124.043 269.612 122.036 270.304 121.615C270.954 121.221 272.848 121.762 273.488 121.872C276.139 122.328 278.658 122.276 281.3 122.16C282.52 122.106 283.691 122.455 284.9 122.283C286.196 122.099 287.501 121.631 288.792 121.371C291.588 120.806 294.136 120.104 296.546 118.422C298.661 116.945 301.165 115.946 302.347 113.36C303.212 111.466 303.565 107.812 301.019 107.274C302.752 104.588 303.949 101.572 304.868 98.4689C305.035 97.9063 305.145 97.059 305.394 96.5683C306.275 94.833 305.458 96.3721 306.714 95.6781C307.955 94.9929 308.849 94.4506 309.819 93.2588C311.365 91.3581 312.016 89.019 312.211 86.5425C312.476 83.1791 312.971 79.3866 312.514 76.0403C311.722 70.2438 307.777 65.8886 303.768 62.383C301.592 60.4796 298.727 59.7708 296.174 58.6157C293.71 57.5003 290.958 56.331 288.362 56.0695C286.019 55.8332 283.734 55.0117 281.389 54.6804C278.165 54.2243 274.937 54.3946 271.698 54.2562C270.207 54.1924 268.719 53.9666 267.235 53.7946C266.396 53.6974 264.979 53.8012 264.211 53.4446C262.955 52.86 263.634 54.0875 263.185 52.2995C262.331 48.8982 261.634 45.7085 260.341 42.4034C259.137 39.3241 257.674 36.38 255.74 33.7474C253.926 31.2781 251.574 29.4719 249.438 27.3625C247.855 25.7998 246.059 24.3881 244.253 23.1243C243.221 22.4018 242.07 22.0111 241.062 21.3731C239.809 20.5819 238.704 19.9819 237.294 19.4972C234.27 18.4576 231.269 17.3537 228.057 17.4081C224.594 17.4664 221.123 16.6009 217.751 17.6982C211.491 19.7363 208.424 27.0212 208.529 33.7112C206.388 33.1375 204.517 32.033 202.249 31.9385C200.16 31.8517 197.678 32.0462 195.626 32.4627C191.644 33.271 187.548 35.6481 185.174 39.2505C182.909 42.6863 182.57 47.2481 183.962 51.1461C184.628 53.0122 185.685 54.6721 186.811 56.2486C187.636 57.4047 189.477 58.6844 189.564 60.2334C174.15 55.2304 158.674 51.7038 142.729 49.4213C134.647 48.2647 126.551 48.8438 118.46 48.1828C115.004 47.9004 111.248 48.2954 107.675 48.3103C106.166 48.3169 104.993 48.0916 103.899 47.0432C102.792 45.9827 101.907 44.6837 100.616 46.2146C100.287 46.6052 100.218 47.5503 99.7746 47.8443C99.2373 48.2004 97.675 47.9559 97.0323 47.9982C94.7853 48.1454 92.5926 48.5548 90.3866 49.0262C86.3389 49.8917 82.3173 50.7664 78.3177 51.8648C70.7023 53.9567 63.1877 55.9799 55.6823 58.463C48.0239 60.9966 40.2847 64.1226 33.2235 68.2239C29.8032 70.2103 26.3869 72.6901 23.2424 75.1474C21.7804 76.2903 20.4699 77.5266 19.1988 78.9047C17.8391 80.3779 16.1766 81.3719 14.8303 82.856C11.9017 86.0842 8.98541 89.5086 6.32855 93.006C4.94128 94.8319 3.66919 96.7578 2.4339 98.7041C1.56708 100.07 -0.717346 102.57 -0.191284 104.334C0.0891113 105.275 1.0686 105.934 1.96564 105.703C2.26501 105.626 2.51471 105.209 2.77008 105.169C3.63641 105.037 2.84833 104.71 3.8595 105.15C5.86853 106.025 6.50922 107.781 9.06165 107.381C13.4005 106.702 17.4815 104.502 21.4273 102.583C22.5541 107.21 22.7138 112.006 23.7004 116.689C24.6624 121.256 26.2666 125.613 28.2035 129.802C29.9024 133.478 32.0839 137.396 35.0912 140.023C37.3858 142.028 43.049 144.518 44.7346 140.25C45.4505 138.437 44.3856 135.621 44.0842 133.755C43.6794 131.252 43.2332 128.741 42.9896 126.213C42.7921 124.158 42.6923 122.092 42.5081 120.035C42.349 118.266 41.9089 114.467 42.8356 112.904C43.3939 111.962 43.4425 112.887 43.7675 113.827C44.1615 114.967 44.489 116.098 44.7771 117.272C45.3901 119.767 45.9427 122.279 46.5225 124.783C47.5582 129.257 48.6989 133.633 50.8573 137.656C52.7742 141.228 55.472 145.147 59.5719 145.732C61.4914 146.006 63.9936 145.064 65.4587 143.675C67.1028 142.117 66.6116 139.548 66.5983 137.43Z" fill="black"/>
<path fill-rule="evenodd" clip-rule="evenodd" d="M160.216 320.121C157.963 319.644 156.066 317.713 154.226 316.262C151.879 314.412 149.653 312.396 147.374 310.453C143.08 306.79 139.184 302.774 135.479 298.405C128.169 289.787 122.666 278.694 120.165 267.36C118.899 261.625 117.334 254.905 118.052 248.978C118.302 246.92 118.683 246.542 120.563 246.308C121.412 246.203 123.566 245.94 124.331 246.299C126.312 247.228 127.382 251.184 127.969 253.172C129.705 259.042 130.726 265.121 132.295 271.038C133.832 276.839 136.31 282.724 138.76 288.148C144.212 300.217 151.789 310.314 160.216 320.121ZM115.521 253.49C116.868 269.924 121.117 285.582 130.645 298.817C135.174 305.108 140.5 310.581 146.272 315.553C152.233 320.687 158.32 325.521 165.084 329.35C166.883 330.37 168.686 331.385 170.508 332.357C171.518 332.896 174.068 334.881 175.233 334.567C176.167 334.315 176.41 333.539 176.556 332.531C176.882 330.266 175.513 329.136 174.127 327.682C168.562 321.84 162.98 315.977 157.777 309.762C147.501 297.489 139.782 282.792 135.491 266.934C134.169 262.052 132.99 257.115 131.563 252.267C130.694 249.313 129.462 244.056 126.574 242.583C125.025 241.794 123.221 242.562 121.592 242.089C120.065 241.645 119.053 240.739 117.751 242.258C115.467 244.923 115.365 250.15 115.521 253.49Z" fill="black"/>
<path fill-rule="evenodd" clip-rule="evenodd" d="M522.613 348.314C523.754 348.748 523.801 349.179 524.324 347.919C524.587 347.283 524.516 346.414 524.454 345.754C524.305 344.173 523.531 342.713 522.894 341.312C516.903 346.619 510.682 351.402 504.258 356.09C497.387 361.104 490.828 366.68 484.33 372.234C478.511 377.208 472.622 382.035 466.864 387.072C464.087 389.501 460.921 391.384 458.281 393.887C456.148 395.91 452.61 396.817 450.791 399.197C453.673 401.046 457.521 402.535 460.715 400.935C464.238 399.17 466.94 396.87 470.076 394.478C471.691 393.245 473.371 392.126 475.012 390.934C476.455 389.885 477.473 388.354 478.934 387.371C482.003 385.303 485.152 383.025 488.064 380.664C491.055 378.239 494.362 376.31 497.248 373.733C500.207 371.09 503.519 369.34 506.608 366.934C513.155 361.836 518.92 356.103 522.613 348.314Z" fill="black"/>
<path fill-rule="evenodd" clip-rule="evenodd" d="M345.977 77.6271C346.058 78.0963 346.139 78.5656 346.221 79.0354C346.171 79.0475 342.254 70.9207 341.605 69.9393C339.403 66.6122 336.539 63.8439 333.777 61.0652C327.927 55.1792 321.08 50.4284 315.347 44.4374C313.461 42.4665 310.082 39.48 310.828 36.1474C311.569 32.8352 317.829 33.5083 319.972 34.4666C323.333 35.9694 326.062 39.1124 328.567 41.851C331.298 44.8386 334.052 47.7926 336.367 51.1735C338.863 54.8193 341.233 58.7679 342.762 62.9988C344.476 67.7387 345.145 72.6439 345.977 77.6271ZM344.69 92.1685C347.349 93.0488 344.016 93.6433 345.057 95.1686C346.199 96.8413 348.119 91.6877 348.406 90.7146C350.099 84.9654 349.342 77.9809 348.418 72.1438C347.951 69.1992 347.65 66.2062 347.02 63.2934C346.406 60.4531 345.069 57.7541 343.834 55.1704C341.361 50.0009 338.086 45.1847 334.369 40.9697C330.641 36.7409 326.486 32.5099 321.567 29.9065C317.502 27.7563 311.06 29.2482 309.157 33.9446C307.213 38.7437 309.842 43.9715 312.951 47.3458C317.007 51.7466 321.427 56.1177 325.982 59.9124C328.323 61.8631 330.286 64.222 332.561 66.2573C334.981 68.4239 337.076 70.6031 338.866 73.4049C340.6 76.1199 342.384 78.8326 343.511 81.9147C344.745 85.2896 344.69 88.598 344.69 92.1685Z" fill="black"/>
<path fill-rule="evenodd" clip-rule="evenodd" d="M451.024 299.126C457.132 294.902 463.262 291.194 468.582 285.807C473.834 280.489 478.423 274.491 484.269 269.877C487.186 267.575 490.196 265.414 493.061 263.036C495.78 260.779 498.906 258.846 501.364 256.272C504.64 252.84 510.773 246.464 506.588 241.347C501.393 247.981 494.265 253.211 487.767 258.247C480.915 263.558 474.626 269.753 468.127 275.539C461.866 281.113 455.626 286.738 449.516 292.459C447.912 293.962 446.365 295.54 444.742 297.019C444.543 297.2 442.861 298.344 442.861 298.649C442.861 299.38 444.164 299.836 444.629 300.039C445.362 300.36 447.346 301.158 448.177 300.888C448.613 300.746 448.621 300.365 448.935 300.138C449.116 299.772 449.327 299.428 449.566 299.104C450.052 299.112 450.538 299.12 451.024 299.126Z" fill="black"/>
<path fill-rule="evenodd" clip-rule="evenodd" d="M91.3967 225.481C95.7515 225.361 102.38 225.347 102.136 231.732C102.015 234.894 100.419 237.216 99.1073 239.921C97.7303 242.763 96.7094 245.699 96.3051 248.884C94.6702 261.779 99.0566 274.376 103.024 286.297C94.5034 278.912 88.35 268.637 85.119 257.374C83.5526 251.913 82.9431 244.892 83.4492 239.205C83.7025 236.36 84.6799 233.808 85.8568 231.273C86.4479 229.999 87.0389 228.545 87.9815 227.514C88.9256 226.481 90.2346 226.137 91.3967 225.481ZM106.588 293.682C109.401 288.714 104.972 281.4 103.523 276.556C101.792 270.764 100.194 264.734 99.4542 258.694C98.679 252.366 99.6799 247.447 102.411 241.858C104.853 236.862 106.303 230.208 103.588 224.921C102.494 222.793 100.88 222.532 98.9605 221.683C96.6045 220.642 95.9556 218.88 93.0644 219.159C87.9058 219.657 85.5191 224.91 83.6002 229.386C79.1257 239.821 80.3421 253.287 84.158 263.765C86.3543 269.794 88.8591 276.054 92.588 281.188C94.4164 283.705 96.5656 285.887 98.7957 287.987C101.208 290.258 103.37 292.995 106.588 293.682Z" fill="black"/>
<path fill-rule="evenodd" clip-rule="evenodd" d="M401.172 112.519C407.973 113.987 414.179 117.278 415.268 125.485C416.259 132.944 411.527 139.844 405.717 143.335C399.433 147.113 391.559 147.74 385.298 143.554C378.707 139.147 377.211 130.316 381.223 123.388C385.7 115.656 393.199 113.374 401.172 112.519ZM396.801 108.941C388.703 110.215 381.185 116.404 378.457 124.739C375.645 133.331 378.229 142.778 385.675 147.486C400.722 157.001 420.833 141.144 417.201 122.917C416.279 118.29 413.661 114.706 410.103 111.996C406.176 109.005 401.426 108.923 396.801 108.941Z" fill="black"/>
<path fill-rule="evenodd" clip-rule="evenodd" d="M108.867 21.6856C118.624 16.948 128.383 12.2104 138.141 7.47281C138.541 12.2225 138.941 16.9717 139.342 21.7214C139.45 23.0066 139.894 24.755 139.705 26.0232C139.503 27.3766 139.934 27.2321 138.291 27.0398C136.19 26.793 134.081 26.2359 132.002 25.8375C128.263 25.121 124.287 24.9166 120.628 23.8627C118.761 23.3247 116.972 23.2571 115.077 22.9319C112.995 22.5747 110.969 21.9131 108.867 21.6856ZM141.875 30.8674C141.875 25.5172 141.322 20.2389 140.866 14.9133C140.455 10.1218 140.297 5.55457 138.841 0.989502C137.48 3.64294 133.713 4.70343 131.381 6.06889C128.169 7.9503 124.747 9.33554 121.459 11.0494C118.229 12.7324 115.118 14.6649 111.884 16.3441C110.245 17.1958 108.58 17.9904 106.943 18.8487C105.919 19.3861 103.489 20.2509 102.852 21.2488C100.917 24.2775 107.54 24.5704 108.818 24.8374C112.651 25.6402 116.529 26.0925 120.355 26.9178C123.922 27.6881 127.496 28.403 131.076 29.1014C134.619 29.7927 138.27 30.8674 141.875 30.8674Z" fill="black"/>
<path fill-rule="evenodd" clip-rule="evenodd" d="M442.757 163.319C438.915 162.89 435.088 162.272 431.251 161.865C427.616 161.478 424.402 161.067 421.082 159.279C425.616 157.811 430.161 156.421 434.733 155.094C437.001 154.437 439.265 153.74 441.543 153.126C443.305 152.65 444.841 152.377 445.519 150.311C446.307 147.907 444.115 148.271 442.748 148.882C440.863 149.724 438.809 150.248 436.855 150.949C432.495 152.512 428.107 153.95 423.705 155.371C422.337 155.813 414.408 157.447 417.265 160.288C418.488 161.503 421.216 162.171 422.711 163.044C424.628 164.164 426.715 164.61 428.848 165.056C433.293 165.985 437.907 166.341 442.407 167.147C444.705 167.558 447.002 167.97 449.3 168.381C450.646 168.622 451.165 168.598 451.516 166.986C451.772 165.815 451.438 164.643 451.193 163.508C450.57 160.625 449.876 157.757 449.19 154.891C448.929 153.797 448.467 148.99 447.559 148.464C445.498 147.271 447.088 153.926 447.241 154.741C447.819 157.815 448.506 160.867 448.815 163.987C446.791 163.79 444.773 163.586 442.757 163.319Z" fill="black"/>
<path fill-rule="evenodd" clip-rule="evenodd" d="M388.28 187.791C387.517 189.846 388.783 190.306 390.32 191.018C392.312 191.942 394.272 192.917 396.301 193.749C400.569 195.498 404.868 197.122 409.035 199.146C416.981 203.005 425.035 206.71 432.858 210.842C434.802 211.869 436.748 212.893 438.709 213.882C440.738 214.905 443.064 216.626 445.234 217.211C447.127 217.721 447.325 216.273 446.203 214.94C444.757 213.221 442.521 211.938 440.705 210.742C433.231 205.823 425.073 201.818 416.91 198.434C407.474 194.522 398.013 190.768 388.28 187.791Z" fill="black"/>
<path fill-rule="evenodd" clip-rule="evenodd" d="M367.532 71.1761C367.806 64.9263 367.027 58.6595 367.491 52.4262C375.472 60.0233 371.54 71.764 366.949 80.0073L367.532 71.1761ZM364.078 70.8189C364.027 73.8718 363.866 76.9231 364.142 79.9606C364.432 83.1492 363.039 84.7916 361.224 87.1401C362.766 88.8204 366.304 84.9026 367.281 83.7476C369.292 81.3694 370.789 78.2099 372.121 75.3543C374.958 69.271 376.912 62.758 374.641 56.0791C373.799 53.6037 372.77 50.2382 370.541 48.7969C368.094 47.2144 366.222 49.4464 365.207 51.7421C362.728 57.3435 364.618 64.8065 364.078 70.8189Z" fill="black"/>
<path fill-rule="evenodd" clip-rule="evenodd" d="M279.531 381.483C275.851 381.796 272.226 382.105 268.546 382.355C269.181 376.938 269.817 371.521 270.452 366.104C272.581 366.634 274.71 367.163 276.84 367.691C277.846 367.941 279.39 368.007 280.281 368.547C280.614 368.629 280.948 368.712 281.28 368.795C281.29 369.498 281.297 370.201 281.303 370.905C281.328 372.985 281.384 375.063 281.464 377.142C281.498 378.013 281.781 379.288 281.587 380.151C281.931 381.023 281.712 381.394 280.928 381.263C280.462 381.336 279.997 381.41 279.531 381.483ZM282.065 385.399C284.949 383.857 284.161 379.145 284.156 376.145C284.153 374.237 284.027 372.341 283.981 370.435C283.948 369.125 284.227 367.504 283.808 366.239C283.061 363.988 279.408 364.049 277.529 364.206C276.137 364.323 274.971 364.248 273.543 364.149C272.84 364.101 272.055 364.245 271.363 364.022C271.214 363.973 269.807 362.92 269.869 362.917C267.346 363.021 267.312 369.518 267.149 371.166C266.744 375.23 266.378 379.3 266.048 383.372C265.96 384.449 265.587 385.667 266.541 386.282C267.4 386.837 269.679 386.289 270.63 386.258C274.463 386.133 278.274 385.492 282.065 385.399Z" fill="black"/>
<path fill-rule="evenodd" clip-rule="evenodd" d="M102 144.005C100.332 145.616 101.133 147.279 101.679 149.292C102.008 150.501 103.812 154.468 103.314 155.598C102.739 156.905 100.036 157.226 98.8797 157.639C96.8666 158.358 94.8443 159.08 92.9392 160.093C92.0938 160.543 89.0445 161.577 88.4729 162.417C88.1454 162.898 88.0262 163.275 88.2723 163.895C88.7047 164.984 89.3213 164.408 90.375 164.174C95.1897 163.106 99.9635 161.74 104.429 159.487C105.674 162.59 106.728 165.759 107.781 168.943C108.09 169.876 108.384 171.996 109.557 172.147C110.986 172.33 111.006 170.274 110.911 169.165C110.773 167.545 109.991 165.818 109.519 164.284C109.129 163.018 107.764 160.382 107.932 159.078C108.047 158.18 108.557 158.243 109.465 157.89C110.323 157.557 111.182 157.226 112.04 156.889C113.415 156.349 114.784 155.807 116.122 155.166C116.856 154.814 118.393 154.403 118.925 153.674C119.233 153.251 119.577 151.726 119.188 151.304C118.277 150.315 112.223 152.976 110.978 153.339C110.152 153.58 109.322 153.764 108.521 154.08C108.217 154.201 107.858 154.689 107.53 154.707C106.137 154.783 106.026 153.633 105.595 152.399C104.591 149.532 103.502 146.608 102 144.005Z" fill="black"/>
<path fill-rule="evenodd" clip-rule="evenodd" d="M449.14 201.038C449.882 199.084 442.002 196.722 440.539 196.064C436.968 194.459 433.142 193.488 429.445 192.262C425.809 191.057 422.189 189.759 418.613 188.364C417.508 187.932 409.544 183.768 409.128 184.377C407.748 186.392 424.458 192.719 426.087 193.349C433.648 196.272 441.455 198.517 449.14 201.038Z" fill="black"/>
<path fill-rule="evenodd" clip-rule="evenodd" d="M110.179 48.1916C112.222 48.2135 115.168 48.8356 117.042 47.9454C114.755 48.0273 112.467 48.1097 110.179 48.1916Z" fill="black"/>
<path fill-rule="evenodd" clip-rule="evenodd" d="M396.801 108.941L401.344 108.923C399.828 108.546 398.313 108.318 396.801 108.941Z" fill="black"/>
<path fill-rule="evenodd" clip-rule="evenodd" d="M160.247 107.637C159.176 107.632 158.105 107.626 157.041 107.619C158.114 107.626 159.181 107.632 160.247 107.637Z" fill="black"/>
<path fill-rule="evenodd" clip-rule="evenodd" d="M66.5987 137.43C66.6067 138.661 66.6138 139.891 66.6233 141.116C66.6163 139.884 66.6077 138.657 66.5987 137.43Z" fill="black"/>
<path fill-rule="evenodd" clip-rule="evenodd" d="M277.529 364.206C278.667 364.295 279.804 364.383 280.941 364.471C279.803 364.383 278.666 364.294 277.529 364.206Z" fill="black"/>
<path fill-rule="evenodd" clip-rule="evenodd" d="M271.119 129.727C272.274 129.827 273.43 129.928 274.584 130.029C273.429 129.928 272.274 129.827 271.119 129.727Z" fill="black"/>
<path fill-rule="evenodd" clip-rule="evenodd" d="M151.568 107.233C150.75 107.231 149.933 107.23 149.122 107.228C149.942 107.23 150.755 107.232 151.568 107.233Z" fill="black"/>
<path fill-rule="evenodd" clip-rule="evenodd" d="M316.065 132.127C317.081 132.226 318.097 132.324 319.113 132.422C318.097 132.324 317.081 132.226 316.065 132.127Z" fill="black"/>
<path fill-rule="evenodd" clip-rule="evenodd" d="M271.189 54.2528C272.206 54.2594 273.222 54.266 274.238 54.2725C273.225 53.6956 272.208 53.8445 271.189 54.2528Z" fill="black"/>
<path fill-rule="evenodd" clip-rule="evenodd" d="M456.672 242.971C457.517 242.923 458.206 243.363 458.683 242.497C457.902 241.844 457.452 242.597 456.672 242.971Z" fill="black"/>
<path fill-rule="evenodd" clip-rule="evenodd" d="M299.889 170.102L302.528 169.783L299.889 170.102Z" fill="black"/>
<path fill-rule="evenodd" clip-rule="evenodd" d="M282.065 385.4C281.482 385.414 280.9 385.428 280.324 385.442C280.908 385.427 281.487 385.413 282.065 385.4Z" fill="black"/>
<path fill-rule="evenodd" clip-rule="evenodd" d="M146.675 49.9728C147.583 50.0602 148.492 50.1475 149.4 50.2349C148.491 50.147 147.583 50.0602 146.675 49.9728Z" fill="black"/>
<path fill-rule="evenodd" clip-rule="evenodd" d="M434.516 345.835C435.389 345.838 436.261 345.843 437.133 345.846C436.26 345.842 435.388 345.838 434.516 345.835Z" fill="black"/>
<path fill-rule="evenodd" clip-rule="evenodd" d="M504.642 329.229C505.523 329.231 506.403 329.232 507.283 329.234C506.402 329.232 505.523 329.231 504.642 329.229Z" fill="black"/>
<path fill-rule="evenodd" clip-rule="evenodd" d="M282.133 130.507C283.027 130.601 283.921 130.695 284.815 130.79C283.921 130.695 283.027 130.601 282.133 130.507Z" fill="black"/>
<path fill-rule="evenodd" clip-rule="evenodd" d="M307.077 132.064C307.956 131.956 308.835 131.847 309.715 131.738C308.843 131.921 307.875 131.198 307.077 132.064Z" fill="black"/>
<path fill-rule="evenodd" clip-rule="evenodd" d="M227.416 169.977C226.868 169.91 226.1 169.704 225.535 169.8C225.609 170.147 227.206 169.976 227.416 169.977Z" fill="black"/>
<path fill-rule="evenodd" clip-rule="evenodd" d="M283.211 244.067C282.621 244.079 282.03 244.091 281.446 244.102C282.038 244.09 282.624 244.079 283.211 244.067Z" fill="black"/>
<path fill-rule="evenodd" clip-rule="evenodd" d="M336.504 168.612C337.366 168.702 338.227 168.791 339.089 168.88C338.226 168.791 337.366 168.702 336.504 168.612Z" fill="black"/>
<path fill-rule="evenodd" clip-rule="evenodd" d="M432.981 165.459C432.511 165.472 432.041 165.486 431.578 165.5C432.05 165.486 432.515 165.472 432.981 165.459Z" fill="black"/>
<path fill-rule="evenodd" clip-rule="evenodd" d="M305.987 169.308C306.724 169.293 307.461 169.277 308.198 169.262C307.461 169.277 306.724 169.293 305.987 169.308Z" fill="black"/>
<path fill-rule="evenodd" clip-rule="evenodd" d="M442.757 163.319C443.502 163.418 444.247 163.516 444.991 163.615C444.245 163.516 443.501 163.417 442.757 163.319Z" fill="black"/>
<path fill-rule="evenodd" clip-rule="evenodd" d="M340.553 156.522C340.093 156.542 339.633 156.561 339.179 156.583C339.641 156.564 340.097 156.544 340.553 156.522Z" fill="black"/>
<path fill-rule="evenodd" clip-rule="evenodd" d="M305.45 239.62C304.983 239.587 304.517 239.555 304.056 239.521C304.524 239.554 304.987 239.587 305.45 239.62Z" fill="black"/>
<path fill-rule="evenodd" clip-rule="evenodd" d="M269.711 174.55C270.462 174.45 271.214 174.349 271.964 174.248C271.214 174.349 270.462 174.45 269.711 174.55Z" fill="black"/>
<path fill-rule="evenodd" clip-rule="evenodd" d="M451.023 299.126C450.536 299.119 450.048 299.112 449.566 299.104C450.055 299.111 450.54 299.118 451.023 299.126Z" fill="black"/>
<path fill-rule="evenodd" clip-rule="evenodd" d="M491.063 234.057C491.84 233.973 492.617 233.889 493.394 233.805C492.617 233.889 491.841 233.973 491.063 234.057Z" fill="black"/>
<path fill-rule="evenodd" clip-rule="evenodd" d="M507.638 329.343C508.402 329.438 509.165 329.533 509.929 329.627C509.165 329.532 508.402 329.438 507.638 329.343Z" fill="black"/>
<path fill-rule="evenodd" clip-rule="evenodd" d="M91.4355 107.505C91.4954 108.214 91.5553 108.922 91.6167 109.628C91.5568 108.919 91.4964 108.212 91.4355 107.505Z" fill="black"/>
<path fill-rule="evenodd" clip-rule="evenodd" d="M429.953 345.127C430.721 345.221 431.489 345.316 432.257 345.411C431.489 345.316 430.721 345.221 429.953 345.127Z" fill="black"/>
<path fill-rule="evenodd" clip-rule="evenodd" d="M437.489 345.944C438.266 346.527 439.043 346.56 439.821 345.947C439.043 345.945 438.266 345.945 437.489 345.944Z" fill="black"/>
<path fill-rule="evenodd" clip-rule="evenodd" d="M452.226 346.642C452.98 346.642 453.733 346.643 454.487 346.643C453.733 346.643 452.98 346.642 452.226 346.642Z" fill="black"/>
<path fill-rule="evenodd" clip-rule="evenodd" d="M364.078 70.819C364.142 70.1008 364.207 69.3832 364.271 68.6678C364.207 69.387 364.142 70.103 364.078 70.819Z" fill="black"/>
<path fill-rule="evenodd" clip-rule="evenodd" d="M281.764 54.7826C282.521 54.8832 283.279 54.9832 284.036 55.0832C283.278 54.9832 282.521 54.8832 281.764 54.7826Z" fill="black"/>
<path fill-rule="evenodd" clip-rule="evenodd" d="M279.08 54.4022C279.85 54.4945 280.62 54.5874 281.389 54.6803C280.619 54.5874 279.85 54.4945 279.08 54.4022Z" fill="black"/>
<path fill-rule="evenodd" clip-rule="evenodd" d="M398.617 150.096C398.144 150.088 397.67 150.081 397.203 150.074C397.678 150.081 398.148 150.088 398.617 150.096Z" fill="black"/>
<path fill-rule="evenodd" clip-rule="evenodd" d="M330.049 142.143C327.535 141.698 325.022 141.55 322.509 142.142L330.049 142.143Z" fill="black"/>
<path fill-rule="evenodd" clip-rule="evenodd" d="M263.02 111.786C262.497 110.319 262.367 109.769 261.09 109.009C261.621 110.435 261.705 111.198 263.02 111.786Z" fill="black"/>
<path fill-rule="evenodd" clip-rule="evenodd" d="M201.733 256.98C201.682 258.506 201.632 260.031 201.582 261.555C201.633 260.029 201.683 258.504 201.733 256.98Z" fill="black"/>
<path fill-rule="evenodd" clip-rule="evenodd" d="M110.59 51.7146C111.727 51.7421 112.864 51.7701 113.996 51.7976C112.857 51.7701 111.724 51.7421 110.59 51.7146Z" fill="black"/>
<path fill-rule="evenodd" clip-rule="evenodd" d="M262.047 284.091C262.007 285.362 261.968 286.635 261.928 287.905C261.968 286.632 262.007 285.362 262.047 284.091Z" fill="black"/>
<path fill-rule="evenodd" clip-rule="evenodd" d="M401.368 243.351C400.22 243.359 399.071 243.368 397.923 243.376C399.071 243.368 400.22 243.359 401.368 243.351Z" fill="black"/>
<path fill-rule="evenodd" clip-rule="evenodd" d="M303.748 178.032C304.44 178.039 305.132 178.046 305.817 178.055C305.123 178.048 304.436 178.04 303.748 178.032Z" fill="black"/>
<path fill-rule="evenodd" clip-rule="evenodd" d="M306.002 137.61C306.571 137.59 307.141 137.569 307.704 137.551C307.132 137.572 306.567 137.591 306.002 137.61Z" fill="black"/>
<path fill-rule="evenodd" clip-rule="evenodd" d="M387.383 242.966C386.485 242.872 385.587 242.777 384.689 242.683C385.587 242.777 386.485 242.872 387.383 242.966Z" fill="black"/>
<path fill-rule="evenodd" clip-rule="evenodd" d="M406.948 243.399C406.069 243.385 405.189 243.37 404.31 243.355C405.189 243.37 406.069 243.385 406.948 243.399Z" fill="black"/>
<path fill-rule="evenodd" clip-rule="evenodd" d="M397.557 243.375C396.647 243.29 395.736 243.204 394.824 243.119C395.735 243.204 396.647 243.29 397.557 243.375Z" fill="black"/>
<path fill-rule="evenodd" clip-rule="evenodd" d="M394.236 244.925C394.689 244.922 395.141 244.919 395.588 244.917C395.133 244.92 394.684 244.922 394.236 244.925Z" fill="black"/>
<path fill-rule="evenodd" clip-rule="evenodd" d="M202.13 223.071C202.063 222.354 201.995 221.638 201.928 220.923C201.995 221.641 202.063 222.356 202.13 223.071Z" fill="black"/>
<path fill-rule="evenodd" clip-rule="evenodd" d="M338.131 150.612C337.559 150.664 336.988 150.716 336.416 150.769C337.054 150.804 337.692 150.838 338.33 150.874C338.326 150.733 338.26 150.646 338.131 150.612Z" fill="black"/>
<path fill-rule="evenodd" clip-rule="evenodd" d="M191.357 271.177C191.393 270.524 191.43 269.871 191.466 269.222C191.429 269.876 191.393 270.527 191.357 271.177Z" fill="black"/>
<path fill-rule="evenodd" clip-rule="evenodd" d="M327.876 148.121C328.335 148.13 328.794 148.14 329.247 148.149C328.786 148.139 328.331 148.13 327.876 148.121Z" fill="black"/>
<path fill-rule="evenodd" clip-rule="evenodd" d="M159.987 230.524C159.222 230.621 158.458 230.717 157.694 230.812C158.458 230.717 159.222 230.621 159.987 230.524Z" fill="black"/>
<path fill-rule="evenodd" clip-rule="evenodd" d="M318.768 176.436C319.239 176.443 319.709 176.45 320.174 176.459C319.702 176.452 319.235 176.444 318.768 176.436Z" fill="black"/>
<path fill-rule="evenodd" clip-rule="evenodd" d="M345.977 77.6271C345.483 77.9101 345.739 79.1541 346.221 79.0354C346.14 78.5656 346.058 78.0963 345.977 77.6271Z" fill="black"/>
<path fill-rule="evenodd" clip-rule="evenodd" d="M91.3967 225.481C91.8506 225.468 92.304 225.456 92.7512 225.443C92.2963 225.456 91.8465 225.469 91.3967 225.481Z" fill="black"/>
<path fill-rule="evenodd" clip-rule="evenodd" d="M367.533 71.1761C367.581 70.0799 367.628 68.9842 367.676 67.8913C367.628 68.9886 367.58 70.0821 367.533 71.1761Z" fill="black"/>
<path fill-rule="evenodd" clip-rule="evenodd" d="M281.626 381.153C280.927 381.263 280.229 381.373 279.53 381.483C280.23 381.373 280.928 381.263 281.626 381.153Z" fill="black"/>
<path fill-rule="evenodd" clip-rule="evenodd" d="M286.246 98.9494C288.709 99.494 291.24 99.7786 293.646 100.58C294.246 100.78 296.216 102.009 296.935 101.685C298.028 101.192 297.475 99.9281 297.015 99.2533C295.784 97.4488 293.582 96.4378 291.562 96.4603C289.546 96.4834 286.779 96.4043 286.246 98.9494Z" fill="black"/>
<path fill-rule="evenodd" clip-rule="evenodd" d="M293.091 103.79C290.378 105.83 288.306 106.834 288.076 102.251C285.136 102.681 286.453 107.766 288.678 108.149C291.1 108.566 292.715 105.969 293.091 103.79Z" fill="black"/>
</svg>
